<?xml version="1.0" standalone="no"?>
<!DOCTYPE svg PUBLIC "-//W3C//DTD SVG 20010904//EN"
 " ">
<svg version="1.0" xmlns="http://www.w3.org/2000/svg"
 width="1734.000000pt" height="1702.000000pt" viewBox="0 0 1734.000000 1702.000000"
 preserveAspectRatio="xMidYMid meet">
<metadata>
</metadata>
<g transform="translate(0.000000,1702.000000) scale(0.100000,-0.100000)"
fill="none" stroke="#333333">
<path d="M0 8510 l0 -8510 8670 0 8670 0 0 8510 0 8510 -8670 0 -8670 0 0
-8510z m11550 7051 c0 -6 8 -11 18 -11 45 0 162 -175 162 -241 0 -15 5 -31 10
-34 6 -3 10 -26 10 -50 0 -24 5 -47 10 -50 6 -4 10 -65 10 -150 0 -85 4 -146
10 -150 6 -4 10 -78 10 -190 0 -112 -4 -186 -10 -190 -6 -4 -10 -55 -10 -120
0 -65 -4 -116 -10 -120 -6 -3 -10 -48 -10 -100 0 -52 -4 -97 -10 -100 -5 -3
-10 -35 -10 -71 0 -36 -4 -64 -10 -64 -5 0 -10 -22 -10 -50 0 -27 -4 -50 -10
-50 -6 0 -10 -27 -10 -60 0 -33 -4 -60 -10 -60 -5 0 -10 -18 -10 -40 0 -22 -4
-40 -10 -40 -5 0 -10 -22 -10 -50 0 -27 -4 -50 -10 -50 -5 0 -10 -18 -10 -40
0 -22 -4 -40 -10 -40 -5 0 -10 -22 -10 -50 0 -27 -4 -50 -10 -50 -5 0 -10 -18
-10 -39 0 -22 -4 -43 -10 -46 -5 -3 -10 -21 -10 -40 0 -19 -4 -37 -10 -40 -5
-3 -10 -26 -10 -50 0 -24 5 -47 10 -50 6 -3 10 -21 10 -40 0 -19 5 -37 10 -40
6 -3 10 -17 10 -30 0 -13 5 -27 10 -30 6 -3 10 -17 10 -30 0 -13 5 -27 10 -30
6 -3 10 -21 10 -40 0 -19 5 -37 10 -40 6 -3 10 -21 10 -40 0 -19 5 -37 10 -40
6 -3 10 -19 10 -36 0 -16 5 -29 10 -29 6 0 10 -15 10 -34 0 -19 5 -38 10 -41
6 -3 10 -26 10 -50 0 -24 5 -47 10 -50 6 -3 10 -17 10 -30 0 -13 5 -27 10 -30
6 -3 10 -21 10 -40 0 -19 5 -37 10 -40 6 -3 10 -26 10 -50 0 -24 5 -47 10 -50
6 -3 10 -30 10 -60 0 -30 5 -57 10 -60 14 -9 12 -89 -2 -103 -7 -7 -39 -12
-74 -12 -35 0 -66 -5 -69 -11 -7 -10 -63 -3 -77 10 -6 5 -19 67 -48 226 -4 28
-18 106 -31 175 -24 140 -92 421 -140 580 -50 168 -53 126 35 491 76 313 124
631 157 1044 13 161 7 534 -11 663 -10 74 -41 160 -63 174 -26 17 -87 6 -215
-37 -462 -157 -962 -415 -1519 -783 -70 -46 -137 -88 -149 -93 -14 -5 -58 -4
-106 1 -316 37 -736 49 -1017 30 -164 -12 -357 -29 -412 -37 -33 -4 -49 4
-175 89 -157 106 -422 269 -570 350 -54 30 -128 72 -164 92 -89 52 -349 178
-444 215 -42 17 -102 44 -134 60 -49 25 -296 108 -373 126 -42 10 -84 -18
-104 -67 -38 -96 -48 -209 -49 -538 -1 -266 3 -345 22 -510 45 -391 101 -663
208 -1023 l27 -88 -18 -67 c-154 -596 -214 -1012 -250 -1747 -3 -55 -9 -455
-14 -890 -13 -1094 -34 -1492 -106 -2010 -34 -244 -39 -301 -28 -342 6 -23 7
-47 2 -55 -7 -10 -9 -10 -9 0 0 7 -5 10 -10 7 -6 -4 -10 -12 -9 -18 1 -7 -3
-25 -9 -40 -15 -35 -16 -91 -2 -82 6 3 10 18 10 32 0 21 2 24 15 13 21 -18 19
-57 -4 -70 -19 -10 -19 -12 -3 -39 13 -23 14 -34 5 -53 -6 -12 -11 -51 -11
-84 0 -34 -4 -70 -10 -80 -14 -28 -6 -296 10 -305 9 -6 9 -13 0 -31 -19 -34
-23 -210 -6 -233 9 -11 14 -47 15 -89 0 -39 4 -80 8 -91 5 -12 4 -26 -3 -34
-8 -11 -8 -15 2 -18 8 -3 12 -29 12 -84 0 -44 4 -79 10 -79 5 0 7 -6 4 -13 -3
-8 1 -27 7 -43 7 -16 11 -35 10 -43 -1 -7 7 -24 20 -37 15 -16 22 -38 24 -71
3 -47 26 -106 46 -119 14 -8 33 -55 30 -76 -1 -9 22 -40 52 -70 30 -29 57 -61
60 -70 4 -10 17 -18 30 -18 29 0 47 -18 47 -46 0 -13 4 -25 10 -29 5 -3 6 -13
3 -22 -5 -12 -2 -15 9 -10 10 3 25 -4 39 -20 13 -13 42 -33 64 -43 22 -11 51
-31 64 -45 13 -14 29 -25 37 -25 8 0 11 -6 7 -17 -5 -12 -2 -15 10 -10 11 4
17 1 17 -9 0 -12 7 -14 30 -9 26 6 30 4 30 -14 0 -16 6 -21 28 -21 20 0 31 -8
43 -33 9 -17 23 -32 31 -32 8 0 22 -5 29 -11 24 -19 46 -23 58 -11 8 8 11 8
11 0 0 -16 52 -73 67 -73 7 0 13 -4 13 -10 0 -5 9 -10 20 -10 13 0 20 -7 20
-20 0 -13 7 -20 19 -20 10 0 25 -10 33 -22 13 -20 17 -21 32 -9 14 12 16 11
16 -3 0 -9 10 -21 23 -27 38 -17 61 -33 89 -62 24 -24 32 -27 68 -21 33 5 40
4 40 -10 0 -9 5 -16 12 -16 6 0 24 -15 39 -32 26 -32 28 -32 46 -15 19 16 21
16 36 -1 10 -10 17 -24 17 -30 0 -7 7 -12 15 -12 8 0 15 -7 15 -15 0 -8 5 -15
10 -15 15 0 99 -82 113 -111 7 -13 26 -31 44 -39 17 -8 43 -30 58 -48 15 -17
32 -32 39 -32 7 0 29 -18 51 -40 27 -28 42 -37 50 -30 9 8 14 2 18 -20 4 -18
13 -30 22 -30 8 0 15 -4 15 -10 0 -5 6 -10 13 -10 40 0 122 -66 122 -98 0 -9
9 -18 20 -20 24 -5 85 -61 85 -78 0 -20 21 -28 31 -13 6 10 9 11 9 2 0 -7 9
-13 19 -13 11 0 31 -13 44 -30 16 -18 35 -30 50 -30 14 0 30 -7 38 -16 7 -8
20 -13 30 -11 10 3 27 -5 40 -19 17 -18 30 -23 49 -19 19 4 31 0 45 -15 10
-11 24 -20 32 -20 7 0 13 -4 13 -10 0 -5 9 -10 20 -10 11 0 20 -6 20 -14 0
-17 61 -50 69 -39 13 17 68 12 86 -7 19 -21 60 -27 69 -11 8 12 66 -16 73 -35
3 -8 17 -14 33 -14 15 0 35 -9 45 -20 10 -11 28 -20 40 -20 11 0 27 -6 34 -12
11 -10 14 -10 18 0 7 18 44 15 58 -5 13 -17 14 -17 32 0 11 9 29 17 41 17 11
0 24 5 28 11 4 8 9 8 17 0 8 -8 17 -5 33 10 14 13 24 17 29 10 7 -12 42 -15
47 -3 6 14 90 52 116 52 28 0 62 25 62 47 0 7 4 13 8 13 17 0 32 -52 32 -108
0 -40 3 -53 10 -42 6 9 10 10 10 3 0 -6 3 -19 6 -27 6 -15 -14 -16 -197 -13
-113 1 -210 6 -217 11 -6 4 -12 3 -12 -3 0 -5 -10 -11 -22 -13 -31 -4 -35 -28
-4 -28 21 0 26 -6 32 -35 3 -19 3 -47 -2 -62 -4 -16 -8 -32 -8 -38 -1 -5 -11
-18 -24 -28 -12 -10 -20 -23 -17 -28 9 -13 42 -11 65 3 15 10 22 10 32 0 9 -9
9 -12 -2 -13 -8 -1 3 -5 25 -8 39 -6 40 -7 40 -43 -1 -21 -2 -102 -3 -180 l-2
-143 -204 0 -204 0 -1 137 c-1 99 1 137 10 140 7 2 10 8 7 14 -4 5 -146 9
-350 9 l-343 0 -6 -135 c-7 -138 -9 -148 -66 -270 -27 -56 -84 -120 -107 -120
-7 0 -24 -8 -37 -19 -34 -26 -256 -149 -297 -163 -19 -7 -37 -19 -39 -25 -3
-7 -9 -10 -14 -7 -6 3 -15 1 -22 -4 -18 -14 -344 -142 -362 -142 -8 0 -15 -7
-15 -15 0 -9 -9 -15 -25 -15 -23 0 -25 4 -25 43 l0 42 -192 -2 c-106 -2 -196
-3 -200 -3 -5 0 -8 -9 -8 -19 0 -11 -4 -23 -10 -26 -5 -3 -10 -17 -10 -30 0
-13 5 -27 10 -30 13 -8 13 -132 1 -139 -5 -4 -12 0 -15 6 -3 7 -5 -12 -3 -42
l3 -55 -140 3 c-98 2 -136 0 -126 -8 13 -8 13 -10 -2 -10 -10 0 -18 5 -18 11
0 7 -14 9 -37 7 -21 -3 -48 -1 -61 3 -22 9 -22 10 -20 181 l3 173 120 6 c66 4
152 7 190 8 l70 1 0 193 0 192 -141 -3 c-120 -3 -142 -1 -147 13 -4 8 -1 15 6
15 22 0 110 88 104 104 -4 11 -1 13 10 9 12 -5 15 -2 10 10 -4 12 -2 14 10 10
13 -5 15 -2 10 11 -5 13 -3 17 7 13 11 -4 13 -1 9 10 -5 12 -2 15 10 10 12 -4
14 -2 10 10 -5 13 -2 15 11 10 10 -4 15 -3 11 3 -4 6 7 23 24 39 17 16 31 34
31 41 0 7 7 10 15 7 17 -7 54 42 47 62 -3 10 0 12 12 8 14 -6 16 -3 11 13 -5
15 -3 18 9 14 17 -7 41 31 30 48 -5 7 -2 9 8 5 12 -4 14 -1 10 15 -4 17 -2 20
13 15 14 -6 16 -3 12 14 -4 14 -2 19 8 16 9 -4 11 1 7 15 -3 15 -1 19 9 16 17
-6 63 58 55 77 -3 10 0 12 11 8 12 -5 14 -1 8 17 -6 19 -4 22 10 16 14 -5 16
-2 11 19 -5 20 -3 23 10 18 14 -5 16 -1 12 19 -4 19 -1 25 9 21 7 -3 13 2 13
11 0 9 4 16 9 16 13 0 53 100 48 121 -3 12 0 16 10 12 11 -4 14 0 11 18 -2 15
2 23 10 21 11 -2 17 18 13 42 -1 5 3 13 10 17 7 4 12 21 11 38 0 20 3 29 10
25 8 -5 9 4 5 29 -4 29 -2 37 10 37 12 0 14 7 9 35 -4 22 -3 35 4 35 6 0 10
31 10 81 0 68 2 80 15 75 10 -4 15 1 15 14 0 11 -6 19 -12 18 -8 -2 -14 10
-16 30 -3 27 -7 32 -29 32 -19 0 -23 3 -15 13 8 9 -21 12 -141 11 -84 0 -181
-4 -217 -8 -156 -17 -220 -29 -214 -38 4 -6 -4 -8 -23 -4 -53 12 -533 -129
-533 -156 0 -5 -4 -7 -10 -3 -12 7 -251 -100 -278 -126 -12 -10 -25 -19 -29
-19 -24 1 -150 -77 -261 -160 -150 -112 -358 -311 -349 -334 4 -10 1 -13 -9
-9 -8 3 -14 -1 -14 -11 0 -9 -4 -15 -9 -14 -14 5 -72 -74 -66 -90 4 -10 0 -12
-11 -8 -12 4 -15 2 -10 -9 3 -9 0 -15 -8 -15 -8 0 -45 -48 -83 -107 -104 -161
-115 -182 -109 -198 3 -9 0 -15 -8 -15 -13 0 -36 -41 -36 -65 0 -8 -4 -15 -8
-15 -5 0 -16 -17 -24 -39 -12 -31 -20 -39 -42 -39 -24 1 -26 4 -26 44 0 23 -5
46 -11 49 -5 4 -9 19 -7 33 5 53 -13 152 -28 152 -17 0 -19 16 -3 26 16 10 1
177 -17 187 -11 6 -14 38 -14 145 0 75 5 144 10 152 9 13 10 13 12 0 1 -8 4
23 8 70 3 47 2 89 -2 95 -14 16 -9 95 6 95 16 0 29 90 15 105 -15 15 -11 55 6
55 9 0 16 14 20 38 3 20 9 60 14 87 5 30 5 57 0 67 -7 13 -6 18 5 18 15 0 31
63 21 80 -4 6 1 17 10 26 12 12 13 20 6 27 -16 16 -13 47 3 47 16 0 28 48 13
57 -6 4 -4 10 5 17 17 13 51 113 43 126 -3 4 0 10 7 12 6 2 11 18 10 36 0 18
3 32 7 32 12 0 33 79 26 100 -4 14 -2 20 9 20 16 0 20 10 16 44 -1 10 3 15 8
12 12 -7 26 29 18 43 -4 5 -2 11 4 13 10 3 62 139 55 146 -2 2 3 11 11 20 9 8
13 23 11 33 -3 11 -1 19 3 19 5 0 16 24 26 53 9 28 33 88 52 132 19 44 35 87
35 95 0 8 6 21 14 28 12 13 17 33 14 59 -2 17 259 19 275 3 6 -6 44 -10 90 -8
l79 3 3 203 2 202 -95 0 c-53 0 -104 -4 -113 -8 -9 -5 -37 -6 -62 -3 l-45 5
40 7 c22 3 -43 7 -145 8 -102 1 -203 5 -225 9 l-40 7 0 164 c0 123 3 168 13
178 9 8 39 13 85 13 43 0 67 4 59 9 -20 12 9 21 68 21 59 0 88 -9 68 -21 -8
-6 0 -9 25 -9 23 0 36 4 32 10 -3 6 -2 10 4 10 5 0 11 -5 13 -11 4 -12 280
-15 298 -4 13 8 13 92 0 100 -12 7 -13 91 -3 161 l7 49 7 -35 c6 -32 6 -30 8
17 0 28 -3 55 -9 58 -17 11 -11 50 37 232 32 124 46 194 44 231 -2 47 11 71
21 40 3 -7 3 15 0 50 -3 39 -1 62 6 62 6 0 12 -6 15 -12 2 -7 2 11 -1 40 -3
35 -1 52 7 52 7 0 11 20 11 51 0 37 4 50 13 46 9 -3 11 11 9 59 -3 41 0 64 7
64 7 0 11 24 11 60 0 33 4 60 10 60 6 0 10 30 10 70 0 40 4 70 10 70 6 0 10
33 10 80 0 47 4 80 10 80 6 0 10 41 10 103 0 56 3 113 7 126 6 23 7 23 13 5 4
-10 6 55 4 146 -2 160 5 227 17 145 3 -22 3 47 1 154 -3 142 -1 195 7 201 9 5
12 165 12 645 0 351 3 643 6 648 3 5 10 3 15 -4 7 -10 8 -8 3 8 -3 12 -1 24 5
28 6 4 10 86 10 230 0 138 4 226 10 230 6 3 10 26 10 50 0 24 5 47 10 50 6 4
10 85 10 210 0 125 4 206 10 210 6 3 10 43 10 89 0 78 1 84 30 111 l30 29 0
122 c0 71 4 125 10 129 6 3 10 21 10 40 0 19 5 37 10 40 6 3 10 21 10 40 0 19
5 37 10 40 6 3 10 26 10 50 0 24 5 47 10 50 6 3 10 21 10 40 0 19 5 37 10 40
6 3 10 19 10 35 0 16 9 45 20 65 11 20 20 44 20 55 0 10 5 22 10 25 6 3 10 21
10 40 0 19 5 37 10 40 6 3 10 21 10 40 0 19 4 37 10 40 18 11 11 102 -10 140
-11 20 -20 53 -20 75 0 21 -4 42 -10 45 -5 3 -10 21 -10 40 0 19 -4 37 -10 40
-6 3 -10 26 -10 50 0 24 -4 47 -10 50 -5 3 -10 17 -10 30 0 13 -4 27 -10 30
-5 3 -10 26 -10 50 0 24 -4 47 -10 50 -6 3 -10 26 -10 50 0 24 -4 47 -10 50
-5 3 -10 26 -10 50 0 24 -4 47 -10 50 -5 3 -10 39 -10 80 0 41 -4 77 -10 80
-5 3 -10 39 -10 80 0 41 -4 77 -10 80 -6 4 -10 65 -10 150 0 85 -4 146 -10
150 -14 8 -14 552 0 560 6 3 10 16 10 29 0 23 32 58 63 69 13 5 17 17 17 50 0
31 6 49 20 62 14 12 20 31 20 59 0 35 7 47 52 93 29 29 57 53 64 53 6 0 19 9
29 20 13 14 31 20 61 20 24 0 46 5 49 10 3 6 21 10 40 10 19 0 37 5 40 10 3 6
21 10 40 10 19 0 37 -4 40 -10 3 -5 21 -10 39 -10 37 0 52 -13 58 -50 2 -15
10 -26 23 -28 30 -5 121 -50 135 -67 7 -8 23 -15 36 -15 12 0 26 -4 29 -10 3
-5 17 -10 30 -10 13 0 27 -4 30 -10 3 -5 21 -10 40 -10 19 0 37 -4 40 -10 8
-13 41 -13 63 1 13 8 34 2 96 -30 43 -23 87 -41 97 -41 11 0 19 -4 19 -10 0
-5 9 -10 20 -10 11 0 20 -4 20 -10 0 -5 9 -10 20 -10 11 0 20 -4 20 -10 0 -5
8 -10 19 -10 10 0 24 -7 31 -15 6 -8 68 -42 136 -75 68 -34 126 -66 129 -70 3
-5 34 -23 69 -40 35 -16 69 -37 76 -45 7 -8 18 -15 25 -15 7 0 18 -7 25 -15 7
-9 32 -25 55 -35 23 -10 48 -26 55 -35 7 -8 19 -15 26 -15 8 0 14 -4 14 -10 0
-5 8 -10 18 -10 11 0 27 -9 37 -20 10 -11 23 -20 30 -20 7 0 20 -9 30 -20 10
-11 24 -20 30 -20 7 0 18 -7 25 -15 22 -26 72 -45 121 -45 26 0 51 5 54 10 4
6 68 10 160 10 92 0 156 4 160 10 9 15 548 13 563 -2 9 -9 18 -8 38 3 21 11
28 11 31 2 4 -10 39 -13 134 -13 79 0 129 -4 129 -10 0 -5 24 -10 53 -10 60 0
138 33 177 75 13 14 29 25 36 25 6 0 17 7 24 15 7 9 33 25 56 35 24 11 46 24
49 30 3 5 21 17 40 26 19 9 35 20 35 25 0 5 9 9 20 9 11 0 20 4 20 8 0 5 16
15 35 22 20 8 41 20 47 27 5 7 48 31 94 53 46 23 86 45 89 49 3 5 66 39 140
76 74 37 135 71 135 76 0 5 9 9 20 9 11 0 20 5 20 10 0 6 9 10 20 10 11 0 20
5 20 10 0 6 9 10 20 10 11 0 20 5 20 10 0 6 9 10 20 10 11 0 35 9 55 20 20 11
42 20 49 20 7 0 48 18 91 40 43 22 84 40 91 40 7 0 29 9 49 20 20 11 44 20 55
20 10 0 22 5 25 10 3 6 15 10 26 10 10 0 19 5 19 10 0 6 14 10 30 10 17 0 30
5 30 10 0 6 11 10 24 10 14 0 28 5 31 10 3 6 19 10 36 10 16 0 29 5 29 10 0 6
18 10 40 10 22 0 40 4 40 8 0 4 52 9 115 11 76 1 115 -1 115 -8z m-3755 -3011
c63 -26 81 -35 125 -64 64 -41 116 -93 159 -156 70 -106 85 -155 85 -295 0
-91 -4 -120 -22 -166 -100 -250 -358 -397 -611 -346 -202 41 -339 155 -399
334 -51 155 -53 230 -7 358 59 164 189 287 360 340 59 18 261 15 310 -5z
m2350 0 c70 -29 83 -36 149 -79 75 -50 133 -118 166 -196 12 -28 25 -59 30
-70 24 -56 32 -156 19 -238 -23 -150 -94 -267 -211 -350 -116 -80 -153 -91
-314 -92 -86 0 -150 4 -165 11 -13 7 -40 19 -61 28 -99 43 -221 171 -266 277
-55 130 -49 297 15 431 64 135 228 263 369 288 66 12 232 6 269 -10z m1753
-812 c7 -7 12 -29 12 -50 0 -21 5 -38 10 -38 7 0 10 -33 8 -92 l-3 -93 -140 0
-140 0 -5 135 c-3 74 -4 138 -2 143 6 13 247 8 260 -5z m129 -788 c3 -11 9
-20 14 -20 5 0 9 -13 9 -30 0 -16 5 -30 10 -30 6 0 10 -15 10 -34 0 -19 5 -38
10 -41 6 -3 10 -19 10 -36 0 -16 5 -29 10 -29 6 0 10 -15 10 -34 0 -19 5 -38
10 -41 6 -3 10 -19 10 -36 0 -16 5 -29 10 -29 6 0 10 -15 10 -34 0 -19 5 -38
10 -41 6 -3 10 -17 10 -30 0 -13 5 -27 10 -30 6 -3 10 -15 10 -26 0 -10 5 -19
10 -19 6 0 10 -15 10 -34 0 -19 5 -38 10 -41 6 -3 10 -19 10 -36 0 -16 5 -29
10 -29 6 0 10 -11 10 -24 0 -14 5 -28 10 -31 6 -3 10 -17 10 -30 0 -13 5 -27
10 -30 6 -3 10 -15 10 -26 0 -10 5 -19 10 -19 6 0 10 -13 10 -30 0 -16 5 -30
10 -30 6 0 10 -9 10 -20 0 -11 5 -20 10 -20 6 0 10 -18 10 -40 0 -22 5 -40 10
-40 6 0 10 -11 10 -24 0 -14 5 -28 10 -31 6 -3 10 -15 10 -26 0 -10 5 -19 10
-19 6 0 10 -11 10 -24 0 -14 5 -28 10 -31 6 -3 10 -15 10 -26 0 -10 5 -19 10
-19 6 0 10 -13 10 -30 0 -16 5 -30 10 -30 6 0 10 -9 10 -20 0 -11 5 -20 10
-20 6 0 10 -9 10 -20 0 -11 5 -20 10 -20 6 0 10 -13 10 -30 0 -16 5 -30 10
-30 6 0 10 -9 10 -20 0 -11 5 -20 10 -20 6 0 10 -9 10 -20 0 -11 5 -20 10 -20
6 0 10 -9 10 -20 0 -11 5 -20 10 -20 6 0 10 -9 10 -20 0 -11 5 -20 10 -20 6 0
10 -9 10 -20 0 -11 5 -20 10 -20 6 0 10 -9 10 -20 0 -11 5 -20 10 -20 6 0 10
-9 10 -20 0 -11 5 -20 10 -20 6 0 10 -9 10 -20 0 -11 5 -20 10 -20 6 0 10 -9
10 -20 0 -11 5 -20 10 -20 6 0 10 -9 10 -20 0 -11 5 -20 10 -20 6 0 10 -9 10
-20 0 -11 5 -20 10 -20 6 0 10 -9 10 -20 0 -11 5 -20 10 -20 6 0 10 -9 10 -20
0 -11 5 -20 10 -20 6 0 10 -9 10 -20 0 -11 5 -20 10 -20 6 0 10 -6 10 -13 0
-7 9 -23 20 -35 11 -12 20 -30 20 -40 0 -36 -24 -44 -117 -40 l-88 3 3 -169
c3 -163 2 -170 -19 -192 -22 -24 -69 -33 -69 -14 0 6 -58 10 -155 10 l-155 0
0 -190 c0 -145 -3 -190 -12 -190 -79 -4 -305 3 -310 8 -4 4 -8 183 -9 397 l-2
390 289 3 c159 2 291 6 294 8 2 3 -5 22 -18 42 -57 94 -187 377 -337 737 -110
263 -331 1022 -350 1204 -6 48 -4 65 6 72 8 5 61 9 117 9 96 0 104 -2 109 -20z
m-225 -1782 c3 -46 3 -87 0 -91 -2 -5 -43 -7 -91 -4 l-86 4 -3 86 -3 87 90 0
89 0 4 -82z m1493 -708 c4 -6 65 -10 151 -10 l144 0 0 -236 c0 -143 -4 -243
-10 -255 -10 -18 -23 -19 -170 -19 -95 0 -161 4 -165 10 -8 14 -118 13 -132
-1 -6 -6 -17 -8 -24 -3 -9 5 -8 10 7 16 14 6 12 7 -8 3 l-28 -5 0 219 c0 213
2 230 33 279 10 15 193 17 202 2z m-8160 -645 l0 -255 -185 1 c-102 1 -198 5
-215 9 l-30 8 30 2 c20 2 11 5 -25 9 -35 4 -55 11 -54 19 1 6 2 109 3 227 l1
215 40 0 c22 0 40 5 40 10 0 6 73 10 198 10 l197 0 0 -255z m751 148 c-10 -10
-19 5 -10 18 6 11 8 11 12 0 2 -7 1 -15 -2 -18z m5549 -185 c4 -29 5 -73 3
-98 l-3 -45 -45 -3 c-25 -2 -73 -1 -107 3 l-63 7 0 87 c0 48 3 91 7 94 3 4 50
7 104 7 l98 0 6 -52z m2904 20 c5 -13 12 -22 17 -20 10 2 18 -181 9 -216 -3
-14 -10 -20 -17 -16 -8 5 -9 -4 -5 -30 l6 -38 -79 3 c-43 2 -74 1 -68 -2 22
-14 -13 -19 -84 -12 -71 8 -72 8 -28 14 40 5 37 6 -30 9 -41 1 -81 2 -87 1
-16 -2 -18 125 -3 134 6 3 10 26 10 51 0 24 -4 44 -10 44 -15 0 -12 59 4 75
10 11 50 15 147 18 74 1 151 4 172 5 31 2 39 -2 46 -20z m-2324 -148 c6 -9 -6
-13 -72 -24 -32 -5 -45 9 -26 27 10 11 91 8 98 -3z m931 -196 c-3 -9 -6 -130
-6 -270 l0 -254 -47 -1 -48 -2 40 -6 c83 -14 -94 -23 -264 -14 -160 8 -163 8
-81 14 79 6 77 6 -32 5 l-117 -1 3 248 c1 136 -1 252 -5 259 -4 6 -2 17 4 24
9 10 73 13 286 14 245 0 273 -2 267 -16z m-1093 -101 c4 -2 7 -58 7 -123 0
-65 -3 -121 -7 -123 -5 -3 -64 -2 -133 2 l-125 6 -3 114 c-1 63 0 121 3 129 4
11 27 12 128 7 67 -4 125 -9 130 -12z m61 -273 c1 -18 -4 -35 -11 -37 -8 -3
-12 9 -11 37 0 49 21 50 22 0z m-74 -34 c0 -16 -18 -31 -27 -22 -8 8 5 36 17
36 5 0 10 -6 10 -14z m-7600 -228 c0 -10 3 -9 9 1 15 23 19 0 20 -117 2 -136
11 -129 -169 -128 l-125 1 -3 128 -3 127 136 0 c101 0 135 -3 135 -12z m6695
-82 c4 -46 4 -89 1 -95 -5 -7 -46 -11 -107 -11 l-99 0 0 89 0 90 43 4 c23 2
67 4 99 5 l56 2 7 -84z m970 -96 c9 -14 135 -13 135 1 0 12 69 10 86 -3 7 -5
11 -134 13 -388 2 -336 1 -384 -13 -406 -16 -24 -18 -24 -174 -24 -180 0 -277
9 -247 21 11 5 -66 8 -172 7 -106 -1 -196 1 -199 5 -7 7 -6 759 2 766 2 2 111
6 241 8 131 3 242 9 248 14 12 12 72 12 80 -1z m1462 -68 c8 -5 13 -51 15
-142 l3 -135 -155 0 -155 0 -3 129 c-1 72 0 136 2 143 4 10 39 13 143 13 76 0
143 -4 150 -8z m-2429 -634 c7 -7 12 -22 12 -34 0 -13 5 -26 10 -29 6 -4 10
-68 10 -160 0 -92 -4 -156 -10 -160 -5 -3 -10 -26 -10 -51 l0 -44 -260 0 -260
0 0 245 0 245 248 0 c180 0 251 -3 260 -12z m1724 -264 c4 -3 7 -73 5 -157
l-2 -152 -172 -3 -171 -2 -5 27 c-3 16 -4 87 -3 158 l1 130 45 7 c47 7 288 0
302 -8z m-2565 -371 c11 -4 13 -39 13 -181 -1 -96 -6 -186 -11 -199 -8 -21
-14 -23 -77 -23 -38 0 -71 3 -75 6 -3 4 -153 6 -332 5 l-325 -2 0 185 c0 101
3 191 6 200 5 14 52 15 396 15 215 0 397 -3 405 -6z m1541 -255 l3 -148 -166
0 -165 0 0 143 c0 79 3 147 7 151 4 3 77 5 162 4 l156 -3 3 -147z m-850 -163
c2 -16 8 -34 13 -39 5 -6 9 -51 9 -102 l0 -92 -154 -1 c-96 -1 -157 2 -161 8
-3 6 -3 67 1 136 l7 126 141 -3 141 -3 3 -30z m-2321 -361 c-3 -3 -12 -4 -19
-1 -8 3 -5 6 6 6 11 1 17 -2 13 -5z m1628 -670 l0 -219 -35 -6 c-19 -4 -28 -7
-20 -8 11 -2 9 -5 -5 -11 -28 -12 -203 -12 -210 0 -3 6 -17 10 -30 10 -13 0
-27 -4 -30 -10 -3 -5 -22 -10 -41 -10 -19 0 -34 5 -34 10 0 6 -16 10 -35 10
l-35 0 0 225 0 225 228 2 c125 2 232 3 237 2 6 0 10 -81 10 -220z m-4163 -101
c2 -5 2 -41 0 -80 l-4 -73 -79 0 -79 0 0 73 c0 41 3 77 7 80 9 10 151 9 155 0z
m1918 -713 c0 -6 47 -10 120 -10 l120 0 0 -175 0 -174 -195 -3 c-107 -2 -200
-1 -205 0 -16 6 -13 339 3 357 14 17 157 21 157 5z m785 -215 c0 -27 -3 -30
-30 -30 -25 0 -30 4 -31 25 -2 35 4 42 34 38 23 -2 27 -8 27 -33z m-2827 -91
c22 -6 22 -8 22 -180 l0 -174 -200 0 -200 0 -2 153 c0 91 -4 134 -7 107 l-7
-45 -4 59 c-7 85 -4 86 205 86 93 0 180 -3 193 -6z m832 -360 c0 -47 4 -73 10
-69 5 3 7 0 4 -9 -8 -20 -18 -22 -115 -18 l-85 3 -3 75 c-1 41 1 79 4 84 3 6
46 10 96 10 l89 0 0 -76z m324 -321 c-9 -58 -9 -59 -56 -55 l-45 4 -1 44 -2
44 54 0 55 0 -5 -37z m-576 -475 l3 -118 -126 0 -125 0 0 113 c0 63 3 117 7
121 4 3 59 5 122 4 l116 -3 3 -117z"/>
<path d="M5721 10584 c0 -11 3 -14 6 -6 3 7 2 16 -1 19 -3 4 -6 -2 -5 -13z"/>
<path d="M5723 10525 c0 -22 2 -30 4 -17 2 12 2 30 0 40 -3 9 -5 -1 -4 -23z"/>
<path d="M5722 10410 c0 -19 2 -27 5 -17 2 9 2 25 0 35 -3 9 -5 1 -5 -18z"/>
<path d="M5604 7028 c-21 -4 -75 -7 -119 -5 l-80 2 0 -170 0 -170 155 -7 c85
-4 165 -5 178 -3 22 5 22 7 22 175 0 124 -3 171 -12 177 -16 10 -93 10 -144 1z"/>
<path d="M4743 6940 c0 -25 2 -35 4 -22 2 12 2 32 0 45 -2 12 -4 2 -4 -23z"/>
<path d="M9070 4310 c0 -5 7 -10 15 -10 8 0 15 5 15 10 0 6 -7 10 -15 10 -8 0
-15 -4 -15 -10z"/>
<path d="M9115 4310 c-4 -6 19 -10 62 -9 47 0 62 3 48 9 -28 12 -103 12 -110
0z"/>
<path d="M6616 3221 c-4 -7 -5 -15 -2 -18 9 -9 19 4 14 18 -4 11 -6 11 -12 0z"/>
<path d="M6658 3163 c7 -3 16 -2 19 1 4 3 -2 6 -13 5 -11 0 -14 -3 -6 -6z"/>
<path d="M12108 6623 c7 -3 16 -2 19 1 4 3 -2 6 -13 5 -11 0 -14 -3 -6 -6z"/>
</g>
</svg>
